<!-- icon666.com - MILLIONS vector ICONS FREE --><svg version="1.1" id="Capa_1" xmlns="http://www.w3.org/2000/svg" xmlns:xlink="http://www.w3.org/1999/xlink" x="0px" y="0px" viewBox="0 0 512 512" style="enable-background:new 0 0 512 512;" xml:space="preserve"><path style="fill: rgb(114, 192, 248);" d="M181.632,106.144V68.107c0-8.288,6.752-15.04,15.04-15.04h118.645c8.288,0,15.04,6.752,15.04,15.04 v38.037h29.035V68.107c0-24.288-19.776-44.064-44.075-44.064H196.672c-24.299,0-44.075,19.776-44.075,44.064v38.037H181.632z" fill="#40596B"></path><path style="fill: rgb(217, 217, 217);" d="M490.667,487.957H21.333C9.557,487.957,0,478.411,0,466.624V127.477 c0-11.776,9.557-21.333,21.333-21.333h469.333c11.787,0,21.333,9.557,21.333,21.333v339.147 C512,478.421,502.453,487.957,490.667,487.957" fill="#F2F2F2"></path><path style="fill: rgb(249, 179, 113);" d="M405.333,487.957H106.667c0-58.912-47.755-106.667-106.667-106.667v-168.48 c58.912,0,106.667-47.755,106.667-106.667h298.667c0,58.912,47.765,106.667,106.667,106.667v168.48 C453.099,381.291,405.333,429.045,405.333,487.957" fill="#FF7058"></path><rect x="133.97" y="220.572" transform="matrix(-0.9932 0.1165 -0.1165 -0.9932 438.081 482.4522)" style="fill: rgb(114, 192, 248);" width="141.943" height="66.913" fill="#40596B"></rect><path style="fill: rgb(241, 14, 14);" d="M431.136,298.453c0,30.421-24.661,55.061-55.061,55.061s-55.061-24.651-55.061-55.061 c0-30.411,24.661-55.061,55.061-55.061S431.136,268.043,431.136,298.453" fill="#FFD15C"></path><rect x="204.916" y="332.998" transform="matrix(-0.7071 -0.7071 0.7071 -0.7071 148.8655 796.692)" style="fill: rgb(217, 217, 217);" width="69.034" height="69.034" fill="#F2F2F2"></rect></svg>